<svg xmlns="http://www.w3.org/2000/svg" viewBox="0 0 800 500" role="img" aria-labelledby="tgif">
  <title id="tgif">A wrapped present with a bow and a reward gem</title>
  <defs><linearGradient id="gifGem" x1="0" y1="0" x2="0" y2="1"><stop offset="0" stop-color="#34c77b"/><stop offset="1" stop-color="#1f9d5c"/></linearGradient></defs>
  <rect x="20" y="20" width="760" height="460" rx="40" fill="#eef1ff"/>

  <!-- present -->
  <g transform="translate(370 300)">
    <rect x="-120" y="-60" width="240" height="160" rx="14" fill="#4f46c7"/>
    <rect x="-18" y="-60" width="36" height="160" fill="#f2c879"/>
    <rect x="-120" y="0" width="240" height="32" fill="#f2c879"/>
    <path d="M0 -60 C-44 -104 -86 -96 -74 -68 C-52 -52 -20 -58 0 -60 Z" fill="#f7d99a"/>
    <path d="M0 -60 C44 -104 86 -96 74 -68 C52 -52 20 -58 0 -60 Z" fill="#f7d99a"/>
    <circle cx="0" cy="-62" r="13" fill="#e2b45f"/>
  </g>

  <!-- gem -->
  <g transform="translate(650 360) scale(0.4)"><polygon points="-70,-44 70,-44 110,0 0,120 -110,0" fill="url(#gifGem)"/><polygon points="-70,-44 70,-44 0,8" fill="#5be29a"/></g>

  <!-- sparkles -->
  <path d="M150 150 l7 16 16 7 -16 7 -7 16 -7 -16 -16 -7 16 -7 Z" fill="#f2c879"/>
  <path d="M640 150 l5 11 11 5 -11 5 -5 11 -5 -11 -11 -5 11 -5 Z" fill="#34c77b"/>
  <path d="M150 380 l5 11 11 5 -11 5 -5 11 -5 -11 -11 -5 11 -5 Z" fill="#4f46c7"/>
</svg>
